<svg width="33" height="33" viewBox="0 0 33 33" fill="none" xmlns="http://www.w3.org/2000/svg">
<path d="M22.6875 11C22.6875 13.0625 22 15.8125 18.7 16.9125C19.6625 14.575 19.8 12.2375 19.1125 10.0375C18.15 7.15004 14.9875 4.95004 12.7875 3.71254C12.2375 3.30004 11.275 3.85004 11.4125 4.67504C11.4125 6.18754 11 8.38754 8.6625 10.725C5.6375 13.75 4.125 16.9125 4.125 19.9375C4.125 23.925 6.875 28.875 12.375 28.875C6.875 23.375 11 18.5625 11 18.5625C12.1 26.675 17.875 28.875 20.625 28.875C22.9625 28.875 27.5 27.225 27.5 20.075C27.5 15.8125 25.7125 12.5125 24.2 10.5875C23.7875 9.90004 22.825 10.3125 22.6875 11Z" fill="#F24822"/>
</svg>
